<?xml version="1.0" standalone="no"?>
<!DOCTYPE svg PUBLIC "-//W3C//DTD SVG 20010904//EN"
 "http://www.w3.org/TR/2001/REC-SVG-20010904/DTD/svg10.dtd">
<svg version="1.0" xmlns="http://www.w3.org/2000/svg"
 width="512.000000pt" height="512.000000pt" viewBox="0 0 512.000000 512.000000"
 preserveAspectRatio="xMidYMid meet">

<g transform="translate(0.000000,512.000000) scale(0.100000,-0.100000)"
fill="#000000" stroke="none">
<path d="M222 5101 c-61 -21 -114 -61 -159 -120 -68 -88 -63 92 -61 -2441 l3
-2295 22 -47 c30 -66 96 -133 162 -165 l56 -28 1780 0 1780 0 56 26 c69 33
127 88 159 154 l25 50 2 1085 3 1084 469 471 c323 323 482 490 510 534 83 130
110 287 72 426 -31 111 -75 189 -152 266 -103 104 -237 159 -389 159 -158 0
-280 -53 -411 -177 -48 -46 -89 -83 -92 -83 -4 0 -8 199 -9 443 l-3 442 -25
50 c-32 66 -90 121 -159 154 l-56 26 -1765 2 c-1689 2 -1767 2 -1818 -16z
m418 -310 l0 -120 -46 -22 c-55 -28 -109 -85 -138 -148 -32 -71 -30 -199 6
-267 34 -65 114 -137 175 -158 66 -22 160 -20 228 5 163 61 243 263 167 424
-30 63 -90 125 -147 152 l-35 17 0 118 0 118 325 0 325 0 0 -118 0 -119 -41
-18 c-87 -40 -159 -141 -174 -246 -13 -90 35 -213 105 -273 70 -58 108 -71
210 -71 102 0 140 13 210 71 70 60 118 183 105 273 -15 105 -87 206 -174 246
l-41 18 0 119 0 118 325 0 325 0 0 -118 0 -118 -35 -17 c-53 -25 -118 -90
-145 -144 -35 -69 -39 -178 -10 -256 58 -154 241 -236 404 -181 64 22 147 100
177 166 36 80 34 193 -4 270 -29 59 -88 118 -144 146 l-33 16 0 118 0 118 320
0 320 0 0 -119 0 -120 -46 -22 c-55 -28 -109 -85 -138 -148 -32 -71 -30 -199
6 -267 34 -65 114 -137 175 -158 66 -22 160 -20 228 5 163 61 243 263 167 424
-30 63 -90 125 -147 152 l-35 17 0 118 0 119 186 -3 186 -3 29 -33 29 -32 0
-533 0 -532 -397 -397 -398 -398 -1171 0 -1170 0 -23 -21 c-48 -45 -50 -107
-4 -153 l26 -26 1063 0 c585 0 1064 -3 1064 -7 0 -5 -143 -151 -317 -325
l-318 -318 -742 0 -741 0 -30 -25 c-39 -32 -48 -72 -28 -119 28 -68 6 -66 766
-66 374 0 680 -3 680 -7 0 -5 -34 -149 -77 -320 l-78 -313 -603 0 c-674 0
-660 1 -688 -66 -20 -47 -11 -87 28 -119 l30 -25 664 0 664 0 423 105 c232 58
436 111 452 117 18 6 215 195 478 457 l447 446 0 -957 0 -958 -29 -32 -29 -33
-1742 -3 c-1915 -2 -1782 -7 -1815 58 -13 26 -15 289 -15 2290 0 1999 2 2264
15 2290 27 53 53 59 243 60 l172 0 0 -119z m173 -331 c14 -11 31 -36 37 -55
25 -77 -58 -160 -135 -135 -66 22 -95 97 -61 159 29 51 112 68 159 31z m856
-6 c96 -80 0 -232 -114 -179 -72 35 -87 115 -31 171 44 44 99 47 145 8z m840
12 c49 -26 68 -108 35 -155 -22 -31 -77 -53 -112 -45 -35 8 -79 49 -87 81 -8
35 12 89 42 113 30 23 82 26 122 6z m864 -6 c14 -11 31 -36 37 -55 16 -48 -11
-103 -62 -128 -32 -16 -43 -17 -73 -7 -66 22 -95 97 -61 159 29 51 112 68 159
31z m1301 -441 c77 -28 148 -96 188 -177 29 -59 33 -76 33 -147 0 -122 -31
-177 -187 -332 l-123 -123 -245 245 -245 245 125 126 c159 160 198 182 327
183 50 1 89 -5 127 -20z m-476 -682 l242 -242 -749 -749 c-444 -444 -753 -746
-760 -742 -6 4 -11 13 -11 19 0 7 -20 47 -45 90 -81 137 -219 265 -365 338
l-63 31 749 749 c412 412 751 749 754 749 3 0 114 -109 248 -243z m-1799
-1462 c134 -63 258 -183 319 -308 54 -112 81 -93 -248 -176 -160 -41 -292 -72
-294 -70 -3 2 28 134 67 292 55 218 75 287 87 287 8 0 39 -12 69 -25z"/>
</g>
</svg>
