<?xml version="1.0" standalone="no"?>
<!DOCTYPE svg PUBLIC "-//W3C//DTD SVG 20010904//EN"
 "http://www.w3.org/TR/2001/REC-SVG-20010904/DTD/svg10.dtd">
<svg version="1.0" xmlns="http://www.w3.org/2000/svg"
 width="512.000000pt" height="512.000000pt" viewBox="0 0 512.000000 512.000000"
 preserveAspectRatio="xMidYMid meet">

<g transform="translate(0.000000,512.000000) scale(0.100000,-0.100000)"
fill="#000000" stroke="none">
<path d="M3562 4260 c-59 -14 -112 -57 -138 -113 -26 -57 -30 -100 -13 -162 8
-34 64 -93 387 -412 l377 -373 -1120 0 c-750 0 -1150 -4 -1210 -11 -569 -69
-1031 -476 -1177 -1036 -26 -102 -31 -141 -35 -290 -6 -202 9 -319 63 -481
164 -496 584 -854 1099 -937 67 -11 182 -15 448 -15 332 0 360 1 395 19 161
83 162 299 2 381 -31 16 -73 18 -400 22 -356 5 -367 6 -465 31 -512 136 -817
644 -695 1156 80 334 334 596 680 703 l75 23 1165 2 1165 3 -362 -360 c-200
-198 -370 -375 -380 -393 -22 -42 -23 -141 -1 -182 55 -104 173 -150 272 -107
37 17 168 141 607 574 309 304 569 569 579 588 29 57 33 95 16 154 -15 52 -33
71 -488 523 -661 656 -684 677 -740 691 -52 13 -59 13 -106 2z"/>
</g>
</svg>
