<?xml version="1.0" standalone="no"?>
<!DOCTYPE svg PUBLIC "-//W3C//DTD SVG 20010904//EN"
 "http://www.w3.org/TR/2001/REC-SVG-20010904/DTD/svg10.dtd">
<svg version="1.0" xmlns="http://www.w3.org/2000/svg"
 width="512.000000pt" height="512.000000pt" viewBox="0 0 512.000000 512.000000"
 preserveAspectRatio="xMidYMid meet">

<g transform="translate(0.000000,512.000000) scale(0.100000,-0.100000)"
fill="#000000" stroke="none">
<path d="M1427 4245 c-25 -6 -54 -18 -64 -26 -10 -8 -266 -259 -570 -558 -331
-326 -559 -558 -569 -580 -9 -19 -19 -55 -22 -78 -10 -90 -6 -95 471 -569 639
-636 705 -699 751 -714 60 -19 139 -9 189 26 86 61 117 180 70 270 -14 25
-162 179 -384 398 l-362 356 1134 0 c1067 0 1139 -1 1224 -19 317 -65 584
-296 700 -606 73 -194 76 -446 7 -645 -52 -148 -132 -270 -255 -386 -91 -86
-180 -143 -297 -191 -143 -59 -198 -66 -602 -72 l-366 -6 -43 -30 c-64 -45
-91 -104 -87 -186 4 -77 30 -123 92 -167 l39 -27 361 -3 c377 -3 456 2 601 40
516 136 900 545 1012 1078 25 120 25 411 0 530 -58 273 -178 500 -369 696
-198 203 -427 331 -713 397 -88 21 -121 21 -1263 27 l-1174 5 362 359 c218
216 368 373 376 392 19 45 18 138 -2 177 -48 94 -145 138 -247 112z"/>
</g>
</svg>
